# xmcd
#
# Track frame offsets:
#        150
#        22444
#        40146
#        62262
#        83350
#        102416
#        118640
#        137127
#        156257
#        176802
#        196418
#        217895
#        238356
#        258725
#        275888
#
# Disc length: 3946 seconds
#
# Revision: 0
# Processed by: cddbd v1.5.1PL0 Copyright (c) Steve Scherf et al.
# Submitted via: ExactAudioCopy v0.95a5
#
DISCID=e10f680f
DTITLE=Various Artist - Toranomon
DYEAR=2002
DGENRE=JPop
TTITLE0=1
TTITLE1=2
TTITLE2=3
TTITLE3=4
TTITLE4=5
TTITLE5=6
TTITLE6=7
TTITLE7=8
TTITLE8=9
TTITLE9=0
TTITLE10=1
TTITLE11=2
TTITLE12=3
TTITLE13=4
TTITLE14=5
EXTD=
EXTT0=
EXTT1=
EXTT2=
EXTT3=
EXTT4=
EXTT5=
EXTT6=
EXTT7=
EXTT8=
EXTT9=
EXTT10=
EXTT11=
EXTT12=
EXTT13=
EXTT14=
PLAYORDER=
